<svg xmlns="http://www.w3.org/2000/svg" viewBox="0 0 176.14 176.14"><defs><style>.cls-1{fill:#7c5631;}.cls-2{fill:#90734e;}</style></defs><title>Asset 1</title><g id="Layer_2" data-name="Layer 2"><g id="Layer_1-2" data-name="Layer 1"><path class="cls-1" d="M146.83,32.44a35.77,35.77,0,0,0-5.16,1.87,46,46,0,0,0-5,2.58c-1.62,1-3.2,2-4.79,3.12s-3.16,2.17-4.78,3.13a48.83,48.83,0,0,1-5,2.59,52.06,52.06,0,0,1-10.36,3.33c-3.48.78-6.89,1.44-10,2.46a44.64,44.64,0,0,0-4.4,1.66,21,21,0,0,0-3.8,2.3c-1.16.87-2.24,1.77-3.3,2.56a27.25,27.25,0,0,1-3.1,2c-2,1.1-3.79,2-5.28,2.74S79.33,64,78.51,64.38s-1.25.5-1.25.5l.15.37s.43-.21,1.24-.54,2-.8,3.57-1.34,3.46-1.14,5.66-1.79a27.25,27.25,0,0,1,3.63-.76c1.31-.19,2.71-.32,4.15-.52A21.73,21.73,0,0,0,100,59.23a43.24,43.24,0,0,0,4.28-1.93c2.89-1.44,5.76-3.39,8.78-5.3a51.63,51.63,0,0,1,9.68-5,44.24,44.24,0,0,1,5.34-1.68c1.82-.47,3.71-.81,5.59-1.18s3.77-.71,5.6-1.18a44.65,44.65,0,0,0,5.33-1.68,35.8,35.8,0,0,0,5-2.33c1-.53,1.87-1.12,2.77-1.72v-6l-.16,0C150.38,31.6,148.59,32,146.83,32.44Z"/><path class="cls-1" d="M51.53,35.46a43.5,43.5,0,0,0,1.65,4.39,21.82,21.82,0,0,0,2.3,3.8c.87,1.16,1.78,2.25,2.57,3.31a27.11,27.11,0,0,1,2,3.1c1.1,2,2,3.79,2.74,5.27S64.05,58,64.39,58.8s.5,1.26.5,1.26l.36-.15s-.2-.43-.54-1.24-.8-2-1.33-3.57-1.15-3.46-1.8-5.66a28.93,28.93,0,0,1-.76-3.63c-.19-1.31-.32-2.71-.52-4.15a21,21,0,0,0-1.06-4.31,44.69,44.69,0,0,0-1.94-4.28c-1.44-2.89-3.39-5.77-5.29-8.78a57.81,57.81,0,0,1-3.49-6.22h-1.6a54.15,54.15,0,0,1,2.14,7.44C49.85,29,50.5,32.4,51.53,35.46Z"/><path class="cls-1" d="M33.07,57.3a43.24,43.24,0,0,0,4.28,1.93,21.06,21.06,0,0,0,4.31,1.07c1.44.2,2.84.33,4.15.52a27.25,27.25,0,0,1,3.63.76c2.2.65,4.11,1.24,5.66,1.79s2.76,1,3.57,1.34,1.24.54,1.24.54l.15-.37s-.44-.16-1.25-.5-2-.85-3.47-1.57-3.25-1.64-5.27-2.74A26.48,26.48,0,0,1,47,58c-1.06-.79-2.14-1.69-3.3-2.56a20.66,20.66,0,0,0-3.8-2.3,43.7,43.7,0,0,0-4.4-1.66c-3.06-1-6.47-1.68-9.95-2.46a57.43,57.43,0,0,1-7.43-2.14v1.6A58.57,58.57,0,0,1,24.29,52C27.3,53.91,30.18,55.86,33.07,57.3Z"/><path class="cls-1" d="M35.46,85.79a44.64,44.64,0,0,0,4.4-1.66,20.25,20.25,0,0,0,3.79-2.3C44.82,81,45.9,80.06,47,79.27a27.25,27.25,0,0,1,3.1-2c2-1.09,3.79-2,5.28-2.74s2.66-1.23,3.47-1.57,1.25-.5,1.25-.5l-.15-.36s-.42.2-1.24.53-2,.81-3.57,1.34-3.46,1.15-5.66,1.8a28.56,28.56,0,0,1-3.63.76c-1.3.19-2.71.32-4.15.52a21,21,0,0,0-4.31,1.06A45.83,45.83,0,0,0,33.07,80c-2.89,1.44-5.76,3.38-8.78,5.29a56.86,56.86,0,0,1-6.21,3.48V90.4a55.51,55.51,0,0,1,7.43-2.15A101.94,101.94,0,0,0,35.46,85.79Z"/><path class="cls-1" d="M41.33,144.57A49.49,49.49,0,0,0,43,139.23c.47-1.83.81-3.71,1.17-5.59s.71-3.77,1.18-5.6A48.62,48.62,0,0,1,47,122.71,52,52,0,0,1,52,113c1.91-3,3.85-5.89,5.29-8.78A45.83,45.83,0,0,0,59.24,100a21,21,0,0,0,1.06-4.32c.21-1.43.33-2.84.52-4.15a26.72,26.72,0,0,1,.77-3.62c.65-2.21,1.24-4.12,1.79-5.66s1-2.76,1.33-3.57.54-1.24.54-1.24l-.37-.15s-.15.44-.49,1.25-.86,2-1.58,3.47-1.64,3.25-2.74,5.27a26.71,26.71,0,0,1-2,3.1c-.8,1.06-1.7,2.15-2.57,3.31a21.22,21.22,0,0,0-2.3,3.8,46.06,46.06,0,0,0-1.66,4.39c-1,3.07-1.67,6.48-2.46,10a51.76,51.76,0,0,1-3.33,10.35,46.8,46.8,0,0,1-2.59,5c-1,1.63-2,3.21-3.12,4.79s-2.17,3.16-3.13,4.79a48.73,48.73,0,0,0-2.58,5,37.6,37.6,0,0,0-1.87,5.17c-.49,1.75-.83,3.55-1.15,5.32a.88.88,0,0,1,0,.16h6c.6-.9,1.18-1.82,1.71-2.77A34.73,34.73,0,0,0,41.33,144.57Z"/><path class="cls-1" d="M104.87,146.83a36.28,36.28,0,0,0-1.86-5.17,46.79,46.79,0,0,0-2.58-5c-1-1.63-2-3.21-3.1-4.8s-2.15-3.17-3.11-4.79a47.85,47.85,0,0,1-2.58-5,52.66,52.66,0,0,1-3.34-10.35c-.8-3.48-1.46-6.88-2.5-9.94a41.24,41.24,0,0,0-1.67-4.39,20.62,20.62,0,0,0-2.31-3.79c-.88-1.16-1.79-2.24-2.58-3.3a26.34,26.34,0,0,1-2-3.11c-1.09-2-2-3.79-2.72-5.28s-1.23-2.66-1.57-3.47-.5-1.25-.5-1.25l-.36.15s.2.42.54,1.24.8,2,1.34,3.56,1.15,3.45,1.81,5.66a25.28,25.28,0,0,1,.77,3.62c.19,1.31.31,2.72.51,4.16a20.84,20.84,0,0,0,1,4.31A42.25,42.25,0,0,0,80,104.25c1.43,2.9,3.37,5.77,5.27,8.79a53.54,53.54,0,0,1,5,9.69,48.66,48.66,0,0,1,1.69,5.33c.47,1.83.82,3.71,1.18,5.59s.73,3.76,1.2,5.59A49.35,49.35,0,0,0,96,144.57a35.84,35.84,0,0,0,2.34,5c.53,1,1.11,1.87,1.71,2.77h6a.88.88,0,0,1,0-.16C105.71,150.38,105.36,148.58,104.87,146.83Z"/><path class="cls-1" d="M149.54,98.32a36.34,36.34,0,0,0-5-2.33,46.1,46.1,0,0,0-5.34-1.68c-1.82-.47-3.71-.81-5.59-1.18s-3.77-.71-5.6-1.17a49.49,49.49,0,0,1-5.34-1.68,52.18,52.18,0,0,1-9.67-5c-3-1.9-5.89-3.85-8.78-5.29A45.83,45.83,0,0,0,100,78.08a20.37,20.37,0,0,0-4.31-1c-1.44-.21-2.84-.34-4.15-.53a28.56,28.56,0,0,1-3.63-.76c-2.2-.65-4.12-1.25-5.66-1.8s-2.76-1-3.57-1.34-1.24-.53-1.24-.53l-.15.36s.44.16,1.25.5,2,.85,3.47,1.57,3.26,1.65,5.28,2.74a27.25,27.25,0,0,1,3.1,2c1.06.79,2.14,1.69,3.31,2.56a20.33,20.33,0,0,0,3.8,2.3,43.51,43.51,0,0,0,4.39,1.66,101.94,101.94,0,0,0,10,2.46,52.06,52.06,0,0,1,10.36,3.33,48.83,48.83,0,0,1,5,2.59c1.62,1,3.2,2.06,4.78,3.13s3.17,2.16,4.79,3.12a46,46,0,0,0,5,2.58,34.62,34.62,0,0,0,5.16,1.87c1.76.49,3.55.84,5.32,1.15l.16,0v-6C151.41,99.44,150.49,98.86,149.54,98.32Z"/><path class="cls-1" d="M80,33.07a42.23,42.23,0,0,0-1.93,4.28A20.43,20.43,0,0,0,77,41.66c-.2,1.44-.33,2.84-.52,4.15a28.93,28.93,0,0,1-.76,3.63c-.65,2.2-1.24,4.11-1.8,5.66s-1,2.75-1.34,3.57-.53,1.24-.53,1.24l.36.15s.16-.45.5-1.26.86-2,1.58-3.47,1.64-3.25,2.74-5.27a28.53,28.53,0,0,1,2-3.1c.8-1.06,1.7-2.15,2.57-3.31a20.62,20.62,0,0,0,2.29-3.8,41.23,41.23,0,0,0,1.66-4.39c1-3.06,1.68-6.47,2.47-9.95a55.59,55.59,0,0,1,2.14-7.44H88.79a54.51,54.51,0,0,1-3.48,6.22C83.41,27.3,81.46,30.18,80,33.07Z"/><path class="cls-1" d="M68.66,65.06a3.6,3.6,0,1,0,3.59,3.6A3.6,3.6,0,0,0,68.66,65.06Z"/><path class="cls-2" d="M68.61,25h.1a22.93,22.93,0,0,0,1.64-3.69c.33-.91.68-2,1-3.2H66a31.78,31.78,0,0,0,1,3.2A22.93,22.93,0,0,0,68.61,25Z"/><path class="cls-2" d="M68.66,59.37c.38,0,3-7,3-15.66S69.16,28,68.66,28s-3,7-3,15.67S68.28,59.37,68.66,59.37Z"/><path class="cls-2" d="M39.94,39.94c-.35.35,2.84,7.07,9,13.19s12.93,9.23,13.2,9-2.84-7.07-9-13.19S40.29,39.58,39.94,39.94Z"/><path class="cls-2" d="M43.71,65.66c-8.65,0-15.67,2.5-15.67,3s7,3,15.67,3,15.67-2.61,15.67-3S52.36,65.66,43.71,65.66Z"/><path class="cls-2" d="M24.94,68.66c0-.07-.23-.21-.64-.39a27.27,27.27,0,0,0-3-1.29c-.92-.33-2-.68-3.2-1v5.34c1.2-.32,2.28-.66,3.2-1a28.15,28.15,0,0,0,3-1.29C24.71,68.87,24.94,68.73,24.94,68.66Z"/><path class="cls-2" d="M48.9,84.18c-6.12,6.12-9.31,12.85-9,13.2s7.08-2.84,13.2-9,9.23-12.93,9-13.2S55,78.06,48.9,84.18Z"/><path class="cls-2" d="M37.17,100.15c-.05,0-.24,0-.52.07h0a25.63,25.63,0,0,0-3.17,1.25,35.72,35.72,0,0,0-3.84,2.09,45.17,45.17,0,0,0-4.5,3.18c-.78.63-1.57,1.31-2.37,2a21.88,21.88,0,0,0-2.31,2.39,23.76,23.76,0,0,0-2,2.94l-.36.65v7c.59-.38,1.19-.73,1.8-1.07,1.14-.62,2.26-1.23,3.34-1.85a23.81,23.81,0,0,0,2.94-2,20.92,20.92,0,0,0,2.39-2.3c.72-.8,1.4-1.59,2-2.37a49,49,0,0,0,3.19-4.5,37.31,37.31,0,0,0,2.08-3.84A26.69,26.69,0,0,0,37,101C37.18,100.51,37.23,100.22,37.17,100.15Z"/><path class="cls-2" d="M24.59,25.85a8.38,8.38,0,0,1,2.12,3.26,14.38,14.38,0,0,0,1.66,3.38,7.19,7.19,0,0,0,1.13,1.2,15.11,15.11,0,0,0,1.21,1,15.78,15.78,0,0,0,2.38,1.43,13.67,13.67,0,0,0,2.1.84,14.06,14.06,0,0,0,1.52.36l.6.08.06-.06s0-.22-.08-.6a14.06,14.06,0,0,0-.36-1.52,13.36,13.36,0,0,0-.84-2.11,15.72,15.72,0,0,0-1.43-2.37,15.11,15.11,0,0,0-1-1.21,7.24,7.24,0,0,0-1.2-1.14,14.77,14.77,0,0,0-3.38-1.65,8.5,8.5,0,0,1-3.26-2.12,11.85,11.85,0,0,1-2.13-3.43,26.09,26.09,0,0,0-1.52-3.09H18.08v4.12a25.24,25.24,0,0,0,3.08,1.53A11.64,11.64,0,0,1,24.59,25.85Z"/><path class="cls-2" d="M167.08,162.8c6.18,6.17,9.32,13,9,13.32s-7.15-2.87-13.33-9.05-9.39-13-9-13.33S160.89,156.61,167.08,162.8Z"/><path class="cls-2" d="M16.66,16.66l-.34,0c-.21,0-.53-.07-.91-.15a17.57,17.57,0,0,1-2.88-.89A19.76,19.76,0,0,1,9,13.73,22.79,22.79,0,0,1,5.68,11,22.84,22.84,0,0,1,2.92,7.62c-.39-.59-.74-1.18-1-1.76s-.57-1.17-.8-1.73A16.23,16.23,0,0,1,.19,1.25,8.81,8.81,0,0,1,0,.34,2.12,2.12,0,0,1,0,0L.34,0c.21,0,.54.07.91.15a17.28,17.28,0,0,1,2.88.89c.55.23,1.14.49,1.73.8a20.39,20.39,0,0,1,1.76,1A22.29,22.29,0,0,1,11,5.69a21.8,21.8,0,0,1,2.76,3.36,19.69,19.69,0,0,1,1.85,3.48,17.57,17.57,0,0,1,.89,2.88c.08.38.11.7.15.91S16.66,16.66,16.66,16.66Z"/><path class="cls-2" d="M72.89,143.08a86.8,86.8,0,0,0-1.74-10.23,53.39,53.39,0,0,1-1.27-10.25,36.46,36.46,0,0,1,.23-5,49.5,49.5,0,0,1,.88-4.89c.36-1.61.72-3.2,1-4.74a37.31,37.31,0,0,0,.65-4.54,34.52,34.52,0,0,0,.06-4.3c0-1.38-.13-2.72-.24-4-.22-2.58-.56-4.93-.93-7s-.82-3.92-1.24-5.42c0,0,0,0,0,0-.71-2.89-1.47-4.69-1.66-4.69s-1,1.86-1.7,4.83c-.41,1.48-.85,3.27-1.21,5.31s-.71,4.44-.93,7c-.11,1.29-.19,2.63-.24,4a34.52,34.52,0,0,0,.06,4.3,37.31,37.31,0,0,0,.65,4.54c.31,1.54.68,3.13,1,4.74a49.48,49.48,0,0,1,.87,4.89,33.57,33.57,0,0,1,.23,5,52.59,52.59,0,0,1-1.26,10.25,86.8,86.8,0,0,0-1.74,10.23c-.28,3.14-.56,6.23-.77,9.23h10C73.45,149.31,73.17,146.22,72.89,143.08Z"/><path class="cls-2" d="M114.57,18.07c-.78,1.14-1.53,2.29-2.29,3.44a52.73,52.73,0,0,1-6.34,8.14A34.82,34.82,0,0,1,102.23,33a49,49,0,0,1-4.08,2.85c-1.4.89-2.77,1.74-4.09,2.61a38.13,38.13,0,0,0-3.67,2.75,35.12,35.12,0,0,0-3.08,3c-1,1-1.84,2-2.67,3-1.67,2-3.09,3.88-4.31,5.62s-2.1,3.21-2.85,4.53c-1.62,2.65-2.4,4.55-2.26,4.69s2-.61,4.58-2.19c1.34-.75,2.93-1.72,4.65-2.91s3.65-2.65,5.62-4.31c1-.83,2-1.73,3-2.67a33.67,33.67,0,0,0,3-3.08,37.79,37.79,0,0,0,2.76-3.67c.86-1.32,1.72-2.7,2.6-4.09s1.83-2.77,2.85-4.08a33.88,33.88,0,0,1,3.39-3.71A52.25,52.25,0,0,1,115.81,25a88.1,88.1,0,0,0,8.47-6l1.13-.95Z"/><path class="cls-2" d="M143.09,64.43a88.3,88.3,0,0,0-10.24,1.73,51.86,51.86,0,0,1-10.25,1.27,33.44,33.44,0,0,1-5-.23c-1.66-.2-3.3-.51-4.91-.87s-3.18-.73-4.73-1a35.7,35.7,0,0,0-4.54-.65,34.49,34.49,0,0,0-4.3-.06c-1.38,0-2.72.12-4,.24-2.57.22-4.93.55-7,.93A53.16,53.16,0,0,0,82.76,67c-3,.71-4.82,1.49-4.82,1.69s1.84,1,4.79,1.69c1.49.41,3.29.85,5.35,1.22s4.45.71,7,.93c1.29.11,2.63.19,4,.24a34.49,34.49,0,0,0,4.3-.06A37.59,37.59,0,0,0,108,72c1.55-.32,3.13-.68,4.73-1a47.12,47.12,0,0,1,4.91-.88,34.82,34.82,0,0,1,5-.23,52.61,52.61,0,0,1,10.25,1.27,88.35,88.35,0,0,0,10.24,1.74c3.13.27,6.22.56,9.22.77v-10C149.31,63.87,146.22,64.15,143.09,64.43Z"/><path class="cls-2" d="M150.69,148.62c-.26-.49-.55-1-.88-1.6a94.45,94.45,0,0,0-7-10.32c-1.57-2-3.32-4.15-5.27-6.32A74.79,74.79,0,0,0,131,124c-2.39-2.09-4.92-4.19-7.48-6.33a86.66,86.66,0,0,0-8.34-5.93,52.52,52.52,0,0,1-7.67-5.93,35.15,35.15,0,0,1-3.25-3.56,49,49,0,0,1-2.84-4.09c-.89-1.39-1.75-2.77-2.62-4.09a37.5,37.5,0,0,0-2.74-3.66,35.12,35.12,0,0,0-3-3.08c-1-1-2-1.84-3-2.67-2-1.67-3.88-3.1-5.63-4.31s-3.31-2.17-4.66-2.93c-2.46-1.5-4.23-2.24-4.51-2.18h0l0,0v0c-.1.21.71,2.14,2.35,4.8.73,1.29,1.64,2.77,2.77,4.39s2.64,3.65,4.3,5.62c.83,1,1.73,2,2.67,3a36.58,36.58,0,0,0,3.08,3,37.72,37.72,0,0,0,3.67,2.75c1.32.87,2.7,1.73,4.09,2.61a49,49,0,0,1,4.08,2.85,33,33,0,0,1,3.56,3.24,52.14,52.14,0,0,1,5.94,7.68,86.58,86.58,0,0,0,5.92,8.34c2.15,2.56,4.25,5.09,6.34,7.48a74.74,74.74,0,0,0,6.4,6.52c2.16,1.94,4.3,3.69,6.31,5.26a93.93,93.93,0,0,0,10.33,7c.61.36,1.16.65,1.65.92,2,1.18,3.45,1.72,3.61,1.56S151.89,150.69,150.69,148.62Z"/></g></g></svg>